# xmcd CD database file
#
# Track frame offsets:
#	150
#	19789
#	51502
#	86856
#	106120
#	126654
#	149692
#	172101
#	199182
#	228124
#	248973
#
# Disc length: 3555 seconds
#
# Revision: 1
# Processed by: cddbd v1.5.1PL2 Copyright (c) Steve Scherf et al.
# Submitted via: CDex 1.51
#
DISCID=a40de10b
DTITLE=Gerry Mulligan - Songbook
DYEAR=1957
DGENRE=Jazz
TTITLE0=Four and one moore
TTITLE1=Crazy day
TTITLE2=Turnstile
TTITLE3=Sextet
TTITLE4=Disc Jockey jump
TTITLE5=Venus de Milo
TTITLE6=Revelation
TTITLE7=May-Reh
TTITLE8=The preacher
TTITLE9=Good bait
TTITLE10=Bag's groove
EXTD=YEAR: 1957
EXTT0=
EXTT1=
EXTT2=
EXTT3=
EXTT4=
EXTT5=
EXTT6=
EXTT7=
EXTT8=
EXTT9=
EXTT10=
PLAYORDER=
